<svg height="512pt" viewBox="0 -68 512 512" width="512pt" xmlns="http://www.w3.org/2000/svg"><g fill="#f5c956"><path d="m50.90625 279.375c-28.070312 0-50.90625-22.835938-50.90625-50.90625v-28.035156c0-28.070313 22.835938-50.90625 50.90625-50.90625s50.910156 22.835937 50.910156 50.90625v28.035156c0 28.070312-22.839844 50.90625-50.910156 50.90625zm0-95.691406c-9.238281 0-16.75 7.515625-16.75 16.75v28.035156c0 9.238281 7.515625 16.75 16.75 16.75 9.238281 0 16.753906-7.515625 16.753906-16.75v-28.035156c0-9.234375-7.515625-16.75-16.753906-16.75zm0 0"/><path d="m320.925781 325.449219c0 28.070312-22.839843 50.90625-50.910156 50.90625h-28.03125c-28.070313 0-50.910156-22.835938-50.910156-50.90625 0-28.070313 22.839843-50.90625 50.910156-50.90625h28.03125c28.070313 0 50.910156 22.835937 50.910156 50.90625zm-95.695312 0c0 9.238281 7.515625 16.75 16.753906 16.75h28.035156c9.234375 0 16.75-7.515625 16.75-16.75 0-9.238281-7.515625-16.753907-16.75-16.753907h-28.035156c-9.238281 0-16.753906 7.515626-16.753906 16.753907zm0 0"/><path d="m50.90625 153.105469c-28.070312 0-50.90625-22.835938-50.90625-50.90625v-28.035157c0-28.070312 22.835938-50.90625 50.90625-50.90625s50.910156 22.835938 50.910156 50.90625v28.035157c0 28.070312-22.839844 50.90625-50.910156 50.90625zm0-95.691407c-9.238281 0-16.75 7.515626-16.75 16.75v28.035157c0 9.238281 7.515625 16.75 16.75 16.75 9.238281 0 16.753906-7.511719 16.753906-16.75v-28.035157c0-9.234374-7.515625-16.75-16.753906-16.75zm0 0"/><path d="m175.292969 354.777344c-19.921875 19.777344-52.21875 19.65625-71.992188-.265625l-19.75-19.898438c-19.773437-19.921875-19.652343-52.21875.269531-71.992187 19.921876-19.773438 52.21875-19.652344 71.992188.269531l19.75 19.894531c19.773438 19.921875 19.652344 52.21875-.269531 71.992188zm-67.414063-67.914063c-6.554687 6.507813-6.59375 17.136719-.085937 23.691407l19.75 19.894531c6.507812 6.558593 17.132812 6.597656 23.691406.089843 6.554687-6.507812 6.59375-17.136718.085937-23.691406l-19.746093-19.894531c-6.511719-6.558594-17.136719-6.597656-23.695313-.089844zm0 0"/><path d="m410.183594 228.46875v-28.035156c0-28.070313 22.839844-50.90625 50.910156-50.90625s50.90625 22.835937 50.90625 50.90625v28.035156c0 28.070312-22.835938 50.90625-50.90625 50.90625s-50.910156-22.835938-50.910156-50.90625zm34.15625-28.035156v28.035156c0 9.234375 7.515625 16.75 16.753906 16.75s16.75-7.515625 16.75-16.75v-28.035156c0-9.238282-7.511719-16.753906-16.75-16.753906s-16.753906 7.519531-16.753906 16.753906zm0 0"/><path d="m410.183594 102.199219v-28.035157c0-28.070312 22.839844-50.90625 50.910156-50.90625s50.90625 22.835938 50.90625 50.90625v28.035157c0 28.070312-22.835938 50.90625-50.90625 50.90625s-50.910156-22.835938-50.910156-50.90625zm34.15625-28.035157v28.035157c0 9.238281 7.515625 16.75 16.753906 16.75s16.75-7.515625 16.75-16.75v-28.035157c0-9.238281-7.511719-16.753906-16.75-16.753906s-16.753906 7.519532-16.753906 16.753906zm0 0"/><path d="m336.4375 282.785156 19.75-19.894531c19.773438-19.921875 52.070312-20.042969 71.992188-.269531 19.921874 19.773437 20.042968 52.070312.269531 71.992187l-19.75 19.898438c-19.773438 19.921875-52.070313 20.042969-71.992188.265625-19.921875-19.773438-20.042969-52.070313-.269531-71.992188zm43.992188 4.164063-19.75 19.898437c-6.507813 6.554688-6.46875 17.183594.089843 23.691406 6.554688 6.507813 17.183594 6.464844 23.691407-.089843l19.746093-19.894531c6.507813-6.558594 6.46875-17.183594-.085937-23.691407-6.558594-6.507812-17.183594-6.46875-23.691406.085938zm0 0"/></g><path d="m50.90625 23.257812c-12.359375 0-23.703125 4.429688-32.527344 11.785157v15.050781c0 11.8125 6.328125 22.175781 15.777344 27.875v-3.804688c0-9.238281 7.515625-16.753906 16.75-16.753906 9.238281 0 16.753906 7.515625 16.753906 16.753906v3.800782c9.445313-5.699219 15.777344-16.058594 15.777344-27.871094v-15.050781c-8.828125-7.355469-20.171875-11.785157-32.53125-11.785157zm0 0" fill="#eeba63"/><path d="m67.984375 0v50.09375c0 9.429688-7.644531 17.078125-17.078125 17.078125-9.429688 0-17.074219-7.648437-17.074219-17.078125v-50.09375zm0 0" fill="#f3e077"/><path d="m50.90625 149.527344c-12.359375 0-23.703125 4.429687-32.527344 11.785156v15.050781c0 11.8125 6.328125 22.175781 15.777344 27.875v-3.804687c0-9.238282 7.515625-16.753906 16.75-16.753906 9.238281 0 16.753906 7.515624 16.753906 16.753906v3.804687c9.445313-5.699219 15.777344-16.0625 15.777344-27.875v-15.050781c-8.828125-7.355469-20.171875-11.785156-32.53125-11.785156zm0 0" fill="#eeba63"/><path d="m50.90625 193.441406c-9.429688 0-17.074219-7.644531-17.074219-17.078125v-50.09375c0-9.429687 7.644531-17.078125 17.074219-17.078125 9.433594 0 17.078125 7.648438 17.078125 17.078125v50.09375c0 9.433594-7.644531 17.078125-17.078125 17.078125zm0 0" fill="#f3e077"/><path d="m83.820312 262.621094c-9.488281 9.417968-14.472656 21.671875-14.96875 34.078125l8.96875 8.371093c6.046876 5.644532 13.925782 8.75 22.191407 8.75 3.273437 0 6.496093-.503906 9.578125-1.457031l-1.796875-1.808593c-6.507813-6.554688-6.46875-17.183594.085937-23.691407 6.558594-6.507812 17.183594-6.46875 23.691406.085938l.390626.394531c1.988281-10.59375-1.304688-21.953125-9.75-29.835938l-9.777344-9.121093c-10.464844 1.492187-20.550782 6.234375-28.613282 14.234375zm0 0" fill="#eeba63"/><path d="m112.503906 292.941406c-6.4375 6.894532-17.242187 7.269532-24.140625.835938l-36.621093-34.179688c-6.898438-6.433594-7.269532-17.242187-.835938-24.136718 6.433594-6.894532 17.242188-7.269532 24.136719-.835938l36.625 34.179688c6.894531 6.433593 7.269531 17.242187.835937 24.136718zm0 0" fill="#f3e077"/><path d="m241.984375 342.203125c-9.238281 0-16.753906-7.515625-16.753906-16.753906s7.515625-16.753907 16.753906-16.753907h2.691406c-5.699219-9.445312-16.058593-15.777343-27.875-15.777343h-13.941406c-7.351563 8.828125-11.785156 20.171875-11.785156 32.53125s4.433593 23.703125 11.785156 32.53125h13.941406c11.816407 0 22.175781-6.332031 27.875-15.777344zm0 0" fill="#eeba63"/><path d="m461.09375 23.257812c12.359375 0 23.703125 4.429688 32.527344 11.785157v15.050781c0 11.8125-6.328125 22.175781-15.777344 27.875v-3.804688c0-9.238281-7.515625-16.753906-16.75-16.753906-9.238281 0-16.753906 7.515625-16.753906 16.753906v3.800782c-9.445313-5.699219-15.777344-16.058594-15.777344-27.871094v-15.050781c8.828125-7.355469 20.171875-11.785157 32.53125-11.785157zm0 0" fill="#eeba63"/><path d="m461.09375 149.527344c12.359375 0 23.703125 4.429687 32.527344 11.785156v15.050781c0 11.8125-6.328125 22.175781-15.777344 27.875v-3.804687c0-9.238282-7.515625-16.753906-16.75-16.753906-9.238281 0-16.753906 7.515624-16.753906 16.753906v3.804687c-9.445313-5.699219-15.777344-16.0625-15.777344-27.875v-15.050781c8.828125-7.355469 20.171875-11.785156 32.53125-11.785156zm0 0" fill="#eeba63"/><path d="m428.179688 262.621094c9.488281 9.417968 14.472656 21.671875 14.96875 34.078125l-8.96875 8.371093c-6.046876 5.644532-13.925782 8.75-22.191407 8.75-3.273437 0-6.496093-.503906-9.578125-1.457031l1.796875-1.808593c6.507813-6.554688 6.46875-17.183594-.085937-23.691407-6.558594-6.507812-17.183594-6.46875-23.691406.085938l-.390626.394531c-1.988281-10.59375 1.304688-21.953125 9.75-29.835938l9.777344-9.121093c10.464844 1.492187 20.550782 6.234375 28.613282 14.234375zm0 0" fill="#eeba63"/><path d="m270.015625 342.203125c9.238281 0 16.753906-7.515625 16.753906-16.753906s-7.515625-16.753907-16.753906-16.753907h-2.691406c5.699219-9.445312 16.058593-15.777343 27.875-15.777343h13.941406c7.351563 8.828125 11.785156 20.171875 11.785156 32.53125s-4.433593 23.703125-11.785156 32.53125h-13.941406c-11.816407 0-22.175781-6.332031-27.875-15.777344zm0 0" fill="#eeba63"/><path d="m149.632812 325.449219c0-9.433594 7.644532-17.078125 17.078126-17.078125h50.089843c9.433594 0 17.078125 7.644531 17.078125 17.078125 0 9.429687-7.644531 17.078125-17.078125 17.078125h-50.089843c-9.433594 0-17.078126-7.648438-17.078126-17.078125zm0 0" fill="#f3e077"/><path d="m444.015625 0v50.09375c0 9.429688 7.644531 17.078125 17.078125 17.078125 9.429688 0 17.074219-7.648437 17.074219-17.078125v-50.09375zm0 0" fill="#f3e077"/><path d="m461.09375 193.441406c9.429688 0 17.074219-7.644531 17.074219-17.078125v-50.09375c0-9.429687-7.644531-17.078125-17.074219-17.078125-9.433594 0-17.078125 7.648438-17.078125 17.078125v50.09375c0 9.433594 7.644531 17.078125 17.078125 17.078125zm0 0" fill="#f3e077"/><path d="m399.496094 292.941406c6.4375 6.894532 17.242187 7.269532 24.140625.835938l36.621093-34.179688c6.898438-6.433594 7.269532-17.242187.835938-24.136718-6.433594-6.894532-17.242188-7.269532-24.136719-.835938l-36.625 34.179688c-6.894531 6.433593-7.269531 17.242187-.835937 24.136718zm0 0" fill="#f3e077"/><path d="m362.367188 325.449219c0-9.433594-7.644532-17.078125-17.078126-17.078125h-50.089843c-9.433594 0-17.078125 7.644531-17.078125 17.078125 0 9.429687 7.644531 17.078125 17.078125 17.078125h50.089843c9.433594 0 17.078126-7.648438 17.078126-17.078125zm0 0" fill="#f3e077"/></svg>